Patient4_TMGait_0pt2_02_right_11_EMG.mot
version=1
nRows=29
nColumns=33
inDegrees=no
endheader
time	1LAddLong	2LGlutMax	3LGlutMed	4LIliopsoas	5LSemiMemb	6LBicFemLong	7LRecFem	8LVastMed	9LVastLat	10LGasMed	11LTibAnt	12lTibPost	13LPeroneusLong	14LSol	15LExtDigLong	16LFlexDigLong	17RAddLong	18RGlutMax	19RGlutMed	20RIliopsoas	21RSemiMemb	22RBicFemLong	23RRecFem	24RVastMed	25RVastLat	26RGasMed	27RTibAnt	28RTibPost	29RPeroneusLong	30RSol	31RExtDigLong	32RFlexDigLong
25.85	0.007477	0.072937	0.13916	0.006561	0.010376	0.002899	-0.016479	0.005341	0.000458	-0.007324	0.005951	0.007935	0.021057	-0.004883	-0.001831	0.008392	-0.014496	-0.032959	-0.2858	-0.011444	-0.086517	0.13138	-0.28351	0.088959	-0.35843	-0.028381	0.065002	-0.001678	-0.099945	0.003052	-0.000305	-0.005646
25.851	-0.004578	0.063171	0.14404	0.014954	-0.006714	0.0177	0.000916	0.011597	0.012665	-0.078278	0.003052	0.005341	0.055084	-0.01709	0.011139	0.00946	-0.067444	-0.023804	-0.32745	-0.01297	-0.067749	0.10529	-0.14603	-0.00946	-0.51148	0.005646	0.034332	-0.20294	-0.1445	0.085449	0.000916	-0.007324
25.852	-0.010376	0.060272	-0.000916	0.033569	-0.022583	0.019073	0.009918	0.010834	0.012054	-0.089111	0.007019	0.007477	0.064697	-0.007172	0.00473	0.010834	-0.045929	0.015411	-0.24063	0.001678	0.094147	0.10803	-0.10895	-0.042267	-0.30334	-0.013123	0.011597	-0.062256	-0.16113	-0.068512	-0.000458	-0.014648
25.853	-0.001373	0.089722	0.045166	-0.019989	-0.035706	-0.018311	-0.001373	0.008545	0.015106	-0.062408	0.013733	0.006561	0.015106	0.005646	0.002136	0.01358	-0.024414	0.009613	0.030365	0.036163	0.19959	-0.13565	-0.088654	0.071564	-0.004883	0.008087	0.013885	0.1564	-0.059357	-0.20966	0.001221	-0.016632
25.854	0.001678	0.10757	0.072632	-0.025177	-0.028381	-0.040741	-0.007477	0.005341	-0.01297	-0.026855	0.005493	0.011444	0.016632	-0.019531	0.001373	0.005341	-0.007782	0.057068	-0.010681	0.052338	0.14297	-0.27695	-0.058746	-0.019684	0.066071	0.021515	0.028992	0.029144	0.003967	-0.21896	0.000763	-0.021057
25.855	0.007019	0.12283	-0.014801	-0.02594	-0.048828	-0.048523	-0.050964	0.000153	-0.066376	-0.003815	-0.001678	0.005798	0.032501	-0.02594	-0.003052	0.011444	0.010376	0.11017	-0.063782	0.062561	0.043945	-0.26169	-0.046082	-0.19943	0.007477	0.018158	-0.006714	0.016937	0.31113	-0.34531	0.001984	-0.016327
25.856	0.016785	0.11673	0.029907	-0.030365	-0.009766	-0.01709	-0.048065	-0.007019	-0.088348	0.033417	0.003967	0.012512	0.012512	0.019989	-0.002289	0.014801	0.036011	0.086365	0.3157	-0.010986	0.023193	-0.11688	-0.037079	-0.16998	-0.022736	-0.02121	-0.098877	0.045166	0.12207	-0.34897	-0.005341	-0.016022
25.857	0.014038	0.071411	-0.061951	0.018616	0.050507	0.000153	-0.059662	-0.000458	-0.050049	0.076752	-0.000153	0.020294	-0.020905	0.037079	0.003662	0.007324	0.022278	0.045929	0.3006	-0.008545	0.034637	-0.044098	-0.047455	0.019073	0.003052	-0.13351	-0.075378	-0.065155	-0.042114	-0.3688	-0.002136	-0.010376
25.858	0.005493	0.031586	0.030212	0.016327	0.051727	0.015717	-0.095062	0.000305	-0.030975	0.075378	0.003204	0.019379	-0.008087	0.043335	0.012054	0.00824	0.006866	-0.009155	-0.098724	0.010376	-0.000153	0.027008	0.007019	0.12375	0.00061	-0.036011	0.003967	-0.11093	0.17685	0.20599	-0.000305	0.002594
25.859	0.015717	0.054626	0.029755	0.000763	0.019836	0.012665	-0.077057	-0.00473	-0.017853	0.065918	-0.001221	0.012817	-0.042114	-0.010071	0.005646	-0.001068	0.017242	-0.035095	0.009613	-0.020142	-0.09491	0.11826	0.032501	0.078888	-0.003052	0.058746	0.011902	0.033569	0.25528	0.61157	0.000458	-0.003052
25.86	0.001831	0.088348	0.038605	0.001221	0.005188	0.014038	-0.077209	0	-0.007172	0.066223	0.006256	0.006409	-0.056	-0.076294	0.000763	0.003357	0.016174	0.043182	-0.34149	0.010529	-0.070496	0.13931	0.095825	0.04364	0.026093	0.056305	0.21668	0.036774	0.16739	0.50247	0.008087	-0.014191
25.861	0.005188	0.0737	0.011139	0.005035	-0.022736	0.01236	-0.028534	0.013123	0.013123	0.072174	-0.000763	0.003662	0.00412	-0.024414	0.001221	-0.002899	0.024872	0.027008	-0.35934	-0.0177	-0.011139	0.083771	0.1178	0.13626	0.020447	0.031891	0.24918	0.010071	0.026398	0.55786	0.004578	-0.004425
25.862	-0.003357	0.076752	0.037689	0.005646	-0.037079	0.010986	0.051575	0.012817	0.039825	0.044861	-0.005798	0.005646	0.000305	-0.013885	0.003967	0.002594	0.035858	0.081329	0.54718	0.059204	-0.048218	-0.002747	0.12848	0.089874	-0.02243	0.036774	0.25681	-0.014954	-0.088959	0.23407	-0.000916	-0.002899
25.863	-0.004272	0.08194	-0.053101	0.004272	-0.050354	0.011139	0.088348	0.003815	0.054016	0.028381	0.003052	0.007019	0.005188	-0.02533	0.001068	0.002136	0.023956	0.033875	0.58624	0.10101	-0.1091	-0.036621	0.22583	0.11734	0.030212	0.021362	0.014496	-0.000458	-0.089569	-0.049896	-0.001068	-0.00351
25.864	-0.003967	0.06958	-0.040741	0.008545	-0.030212	-0.016327	0.055237	0.008545	0.042725	0.013733	-0.011597	0.005951	-0.007324	-0.011292	-0.006561	0.009613	0.010529	-0.011749	-0.021667	0.031738	-0.079651	-0.023804	0.27618	-0.028534	-0.036316	0.022125	-0.11627	-0.019379	-0.014191	-0.23972	-0.000305	-0.011749
25.865	0.007324	0.064697	-0.084076	0.014801	0.017853	-0.022583	0.001526	-0.000458	0.02243	0.021973	0.007324	-0.001831	-0.039368	-0.011292	-0.002136	0.012207	-0.02243	-0.030365	0.072021	-0.051727	-0.021515	0.005646	0.10773	-0.091553	-0.031586	0.012665	-0.13001	-0.02655	0.17303	-0.23621	-0.000458	-0.019989
25.866	0.01709	0.057068	-0.047302	-0.005646	0.069427	-0.010834	-0.005341	0.005646	0.02594	-0.008545	-0.000458	0.005035	-0.094757	-0.012207	-0.018463	0.01236	-0.040131	0.018158	-0.072327	0.022278	0.018158	-0.014343	0.049591	-0.24765	-0.044861	-0.002899	-0.087433	-0.016022	0.050507	0.01709	0.00061	-0.014954
25.867	0.023193	0.061188	0.1831	-0.003967	0.036774	0.003052	0.00946	0.001373	0.015564	-0.012817	0.048676	-0.001068	-0.077972	-0.023499	-0.022736	0.007324	-0.019684	0.000763	-0.22873	0.086975	0.011749	-0.015564	0.16586	-0.35278	-0.059052	-0.00412	-0.080261	-0.022888	-0.092468	0.1033	0.005035	-0.019989
25.868	0.02655	0.067596	0.12054	0.025177	0.038147	0.036011	0.012054	-0.000458	-0.010986	-0.024109	0.035248	0.005646	-0.016632	-0.022583	-0.010223	0.005951	-0.008087	0.028687	-0.18555	0.089264	0.04837	-0.021362	-0.031891	-0.2327	0.004425	-0.010681	-0.066833	-0.021057	-0.024567	0.10117	0.000916	-0.020294
25.869	0.009918	0.041656	0.023193	-0.007935	0.031586	0.066223	-0.010071	0.006561	-0.030975	0.00351	-0.002136	0.003967	0.013885	-0.013885	-0.002136	0.014343	0.008392	0.028229	-0.00412	0.029602	0.055847	-0.044556	-0.066223	-0.083008	-0.053406	-0.025024	-0.002136	-0.023651	-0.017395	0.22964	-0.001221	-0.014343
25.87	0.004425	0.031281	0.078583	-0.006104	0.018768	0.08255	-0.016785	0.012207	-0.027313	0.02121	-0.007324	-0.00412	0.048676	-0.002136	0.011444	0.005493	0.001678	0.064545	0.233	-0.067596	0.052032	0.017395	-0.035553	-0.069733	-0.23758	-0.027466	0.27023	-0.020294	-0.027618	0.16647	0.001373	-0.016479
25.871	-0.000458	0.033875	0.050049	0.001526	-0.006409	0.06424	-0.015717	0.005798	-0.029602	0.019531	-0.002594	-0.000916	0.029449	0.019836	0.003662	-0.000763	-0.017242	0.012054	-0.002747	-0.068817	-0.066376	0.050049	-0.018921	-0.04425	-0.26016	-0.027466	0.66193	-0.028992	-0.022583	-0.042572	0.000763	-0.005493
25.872	-0.001831	0.031586	0.022125	-0.002289	-0.027313	0.037689	-0.023651	0.007782	-0.01297	0.014496	0.002289	0.004425	0.022278	-0.028687	-0.012054	-0.001068	-0.027618	-0.014496	-0.24155	-0.035706	0.016022	0.078888	-0.13321	0.12177	-0.20111	0.001526	0.71243	-0.035858	0.14175	-0.17792	0	-0.013123
25.873	-0.007629	0.043488	-0.044403	-0.005493	-0.03479	0.024261	-0.01297	0.009155	0.000305	0.011139	-0.007324	-0.00412	0.008545	-0.004883	0.00946	-0.009155	-0.036469	0.088654	-0.32532	-0.041199	0.023651	0.085754	-0.17685	0.36133	-0.001526	-0.009766	1.0019	-0.020599	-0.079956	-0.2626	0.00885	-0.007935
25.874	0.002899	0.049286	-0.093842	-0.023346	-0.017548	0.013733	-0.014648	0.007935	0.009308	0.015411	-0.00351	-0.000153	0.011292	-0.009003	0.022278	-0.006561	0.000763	0.11032	-0.1799	-0.034637	-0.003662	0.026703	-0.112	0.1358	0.052643	0.001984	0.28824	0.03067	-0.007172	-0.33356	-0.001068	-0.006104
25.875	-0.001068	0.036011	0.002747	0.000763	-0.045319	0.004883	0.000153	0.005798	0.030365	0.00473	-0.010376	-0.003204	0.000458	-0.010071	0.011749	0.006866	-0.002136	0.09903	-0.45105	-0.099945	-0.0354	-0.039215	-0.25955	-0.32638	0.16632	0.007629	-1.3486	0.016937	0.11841	-0.41199	0.002136	-0.007172
25.876	-0.004425	0.037537	0.035858	0.001526	-0.019226	-0.002441	0.016632	0.007172	0.043945	-0.026703	0.012512	-0.006714	0.002136	-0.007477	0.00061	-0.001831	-0.006866	0.097961	-0.43243	-0.1712	-0.044403	-0.033722	-0.46051	-0.18234	0.64209	0.010986	-0.72113	-0.002899	0.13596	-0.5574	0.002289	-0.003662
25.877	0.00946	0.025787	0.15701	0.001221	-0.003967	-0.006561	-0.007477	0.010986	0.037994	-0.007172	0.00351	-0.002594	-0.015564	-0.013428	-0.006561	-0.004272	0.005951	0.092163	-0.020599	-0.20905	-0.064392	0.036316	-0.16159	-0.13016	0.68314	0.017242	0.1384	-0.000305	0.13763	-0.53177	0.002747	-0.002136
25.878	0.010071	0.017242	0.06424	0.012665	-0.006104	0.007324	-0.02182	0.00351	0.018005	-0.010071	0.003357	-0.003357	-0.006714	-0.00824	-0.010223	-0.003815	0.016937	0.072937	0.51559	-0.084991	-0.064545	0.077972	-0.000458	-0.21683	0.38361	0.01709	0.92178	-0.00351	0.068054	-0.36926	0.000458	-0.00946
